<svg xmlns="http://www.w3.org/2000/svg" version="1.1" xmlns:xlink="http://www.w3.org/1999/xlink" xmlns:svgjs="http://svgjs.dev/svgjs" width="10" height="11" viewBox="0 0 1000 1138"><g transform="matrix(1,0,0,1,-0.8994400313993651,0.4615795357611887)"><svg viewBox="0 0 217 247" data-background-color="#ffffff" preserveAspectRatio="xMidYMid meet" height="1138" width="1000" xmlns="http://www.w3.org/2000/svg" xmlns:xlink="http://www.w3.org/1999/xlink"><g id="tight-bounds" transform="matrix(1,0,0,1,0.1951784868136599,-0.09997365579206985)"><svg viewBox="0 0 216.60964302637268 247.2" height="247.2" width="216.60964302637268"><g><svg viewBox="0 0 216.60964302637268 247.2" height="247.2" width="216.60964302637268"><g><svg viewBox="0 0 216.60964302637268 247.2" height="247.2" width="216.60964302637268"><g id="textblocktransform"><svg viewBox="0 0 216.60964302637268 247.2" height="247.2" width="216.60964302637268" id="textblock"><g><svg viewBox="0 0 216.60964302637268 247.2" height="247.2" width="216.60964302637268"><path d="M216.103 53.02C215.084 27.36 212.182 20.227 212.182 20.227 203.272-6.202 192.151-0.506 182.162 3.292 164.524 3.446 146.958 9.091 129.361 12.119 92.427 12.581 55.176 4.986 18.425 23.717 14.972 29.464-3.581 24.846 0.614 56.304 1.714 69.39 5.726 83.913 5.604 95.922 6.154 98.026 6.917 93.202 7.243 96.23 8.384 104.39 10.247 100.541 11.775 105.365 9.647 118.246 11.174 128.971 12.63 140.21 10.064 143.135 6.775 141.749 5.298 151.449 5.146 158.479 4.321 157.145 3.414 156.837 2.753 156.632 1.419 157.402 1.643 159.608 2.406 167.152-0.873 171.514 1.184 178.904-0.231 186.91 2.162 193.838 1.836 202.511 1.795 204.255 2.019 205.744 2.376 206.154 3.954 208.361 1.653 212.672 1.897 217.342 18.089 249.262 35.655 227.195 52.243 241.872 56.551 231.608 53.313 245.516 55.034 243.36 56.378 240.846 57.355 251.263 58.873 245.362 59.107 243.668 58.75 239.665 59.585 240.435 60.023 240.846 60.41 240.743 60.471 238.382 60.563 234.841 59.759 237.048 59.545 235.201 61.856 225.861 61.286 248.081 63.455 247.158 63.353 244.438 62.722 240.538 64.015 241.051 65.298 237.151 65.339 233.918 66.48 242.693 66.52 244.592 66.724 245.926 67.05 246.85 70.614 237.305 74.158 250.237 77.895 245.926 80.186 241.205 82.386 248.492 84.708 246.696 85.522 245.259 86.347 242.693 87.131 247.004 96.734 247.928 106.968 244.079 116.072 247.158 140.4 241.41 166.398 249.518 192.05 241.923 198.098 238.998 204.382 234.841 210.278 231.506 210.278 231.506 215.054 222.371 215.054 181.316S216.072 145.393 216.225 112.703C216.377 80.013 217.09 78.679 216.072 53.02Z" opacity="1" fill="#010c80" data-fill-palette-color="tertiary"></path><g transform="matrix(1,0,0,1,55.76832,26.230666666666668)"><svg width="105.07300302637267" viewBox="2 -37.45 20.31 37.650000000000006" height="194.73866666666666" data-palette-color="#ffffff"><path d="M2-1.27L2-1.27 2.25-35.64Q2.78-37.45 6.45-37.45L6.45-37.45Q9.81-37.45 12.65-36.55 15.48-35.64 17.41-33.52 19.34-31.4 19.34-28.42L19.34-28.42Q19.34-26.07 18.19-23.88 17.04-21.68 15.38-21.04L15.38-21.04Q18.51-20.61 20.41-17.29 22.31-13.96 22.31-9.42L22.31-9.42Q22.31-6.35 19.87-4.08 17.43-1.81 14.18-0.81 10.94 0.2 7.62 0.2L7.62 0.2Q3.56 0.2 2-1.27ZM6.01-18.36L6.01-18.36Q6.01-14.99 5.91-4.83L5.91-4.83Q7.37-3.17 9.67-3.17L9.67-3.17Q12.7-3.17 15.53-5.69 18.36-8.2 18.36-11.08L18.36-11.08Q18.36-14.65 15.97-16.65 13.57-18.65 9.81-18.65L9.81-18.65Q7.32-18.65 6.01-18.36ZM5.91-21.97L5.91-21.97 8.94-22.02Q12.06-22.02 13.75-23.85 15.43-25.68 15.43-28.22L15.43-28.22Q15.43-30.81 13.72-32.69 12.01-34.57 8.98-34.57L8.98-34.57Q7.62-34.57 5.76-33.98L5.76-33.98Q5.86-31.01 5.88-26.61 5.91-22.22 5.91-21.97Z" opacity="1" transform="matrix(1,0,0,1,0,0)" fill="#ffffff" class="wordmark-text-0" data-fill-palette-color="quaternary" id="text-0"></path></svg></g></svg></g></svg></g></svg></g><g></g></svg></g><defs></defs></svg><rect width="216.60964302637268" height="247.2" fill="none" stroke="none" visibility="hidden"></rect></g></svg></g></svg>